<svg width="174" height="70" viewBox="0 0 174 70" fill="none" xmlns="http://www.w3.org/2000/svg">
<g filter="url(#filter0_d)">
<path d="M23.6822 20.9222L22.2369 20.2107C21.9551 20.0507 21.5915 20.1752 21.4279 20.4508C19.2554 24.0346 14.5104 25.2174 10.8472 23.0564C7.1839 20.851 6.02039 16.2356 8.19289 12.6518C10.3654 9.06803 15.1103 7.88526 18.7736 10.0462C19.0918 10.2419 19.419 10.4375 19.7008 10.6776C19.9462 10.8733 20.3007 10.8377 20.5098 10.6421L21.6369 9.49487C21.8824 9.25476 21.8369 8.86348 21.6006 8.66784C21.6006 8.66784 21.6006 8.66783 21.5642 8.63226C17.1011 5.00399 10.4563 5.59982 6.75669 9.97509C3.05708 14.3504 3.65701 20.851 8.12927 24.4793C12.5924 28.1076 19.2372 27.5117 22.9368 23.1365C23.3004 22.7007 23.6186 22.2294 23.9458 21.7581C24.1094 21.4824 24.0276 21.1267 23.7458 20.9311H23.6822V20.9222Z" fill="#191919"/>
<path d="M7.30257 6.29348C8.39337 5.9022 8.91149 4.75505 8.54789 3.73238C8.1843 2.70971 6.97534 2.15833 5.92999 2.51404C4.83919 2.90533 4.32106 4.0525 4.68466 5.07518C5.08461 6.13342 6.24814 6.6492 7.30257 6.29348Z" fill="#191919"/>
<path d="M14.1385 3.89226C15.2293 3.50098 15.7474 2.3538 15.3838 1.33113C14.9839 0.263993 13.8113 -0.242892 12.7659 0.11282C11.6751 0.504103 11.157 1.65128 11.5206 2.67395C11.8842 3.69662 13.0568 4.24797 14.1385 3.89226Z" fill="#191919"/>
<path d="M29.4735 14.2167C29.2281 13.9765 28.8735 13.9765 28.6281 14.2167L27.7009 15.0437L25.4103 11.1398C25.0467 10.5528 24.2831 10.3127 23.6377 10.6684C23.3923 10.784 23.2378 10.9797 23.1105 11.2198L21.3379 14.9281L19.7654 12.9539C19.3654 12.4381 18.6382 12.3225 18.0746 12.6426C17.8292 12.8027 17.6292 12.9984 17.5474 13.2296L15.1295 18.3162C15.0113 18.6275 15.1295 18.9476 15.4113 19.1077L16.6566 19.6591C16.9384 19.8191 17.302 19.659 17.4656 19.3834L18.9927 16.1553L20.5199 18.1295C20.8835 18.5652 21.447 18.7164 21.9652 18.5208C22.2833 18.4051 22.5651 18.165 22.6923 17.8538L24.3013 14.5012L26.192 17.6582C26.3102 17.8983 26.5101 18.0939 26.7556 18.2095C27.2373 18.4496 27.8009 18.3696 28.2009 17.9694L30.337 15.9952C30.5824 15.7551 30.5825 15.4083 30.3734 15.1682L29.4735 14.2167Z" fill="#191919"/>
<path d="M49.4697 11.4333C50.9604 11.3532 52.3694 12.1447 53.1329 13.4075C53.2147 13.5675 53.3784 13.6476 53.5329 13.6476H56.2326C56.478 13.6476 56.678 13.4519 56.678 13.2118C56.678 13.1318 56.678 13.0962 56.6416 13.0518C55.4327 10.295 52.7784 8.67651 49.5151 8.67651C44.9701 8.67651 41.5068 11.9046 41.5068 16.5199C41.5068 21.1353 44.9247 24.399 49.4787 24.399C52.742 24.399 55.4327 22.8605 56.6416 20.0593C56.7235 19.8192 56.6417 19.5435 56.3962 19.4723C56.3599 19.4368 56.2781 19.4368 56.2326 19.4368H53.5329C53.3693 19.4368 53.2147 19.5168 53.1329 19.6769C52.4057 20.9752 50.9604 21.7222 49.4697 21.6511C46.7336 21.6511 44.761 19.6413 44.761 16.5288C44.761 13.4164 46.7336 11.4333 49.4697 11.4333Z" fill="#191919"/>
<path d="M58.8145 23.839L58.8508 12.5273C58.8508 12.2872 59.0508 12.0916 59.2962 12.0916H61.5505C61.7959 12.0916 61.9959 12.2872 61.9959 12.5273L61.9596 23.839C61.9596 24.0791 61.7596 24.2748 61.5142 24.2748H59.2599C59.0144 24.2748 58.8145 24.0702 58.8145 23.839Z" fill="#191919"/>
<path d="M60.3226 7.00471C59.3136 7.04028 58.5137 7.91179 58.55 8.8989C58.5864 9.88601 59.4772 10.6686 60.4862 10.633C61.4952 10.5974 62.2587 9.80598 62.2587 8.81886C62.2587 7.83175 61.4497 7.00471 60.4044 7.00471C60.368 6.96913 60.3226 6.96913 60.3226 7.00471Z" fill="#191919"/>
<path d="M71.1214 11.9313C69.7489 12.0469 68.5036 12.8028 67.7855 13.9766V12.5182C67.7855 12.2781 67.5855 12.0824 67.34 12.0824H65.1312C64.8858 12.0824 64.6858 12.2781 64.6858 12.5182L64.6494 23.8298C64.6494 24.0699 64.8494 24.2656 65.0948 24.2656H67.3491C67.5946 24.2656 67.7945 24.0699 67.7945 23.8298L67.8309 18.1918C67.8309 15.8263 68.9581 15.1149 70.8488 15.1149H71.2123C71.4578 15.1149 71.6577 14.9193 71.6577 14.6791C71.6577 14.0478 71.6577 12.9806 71.6577 12.3581C71.6032 12.1714 71.4032 11.9313 71.1214 11.9313C71.1578 11.9313 71.1214 11.9313 71.1214 11.9313Z" fill="#191919"/>
<path d="M78.2848 14.3857C79.3301 14.3057 80.2936 14.9015 80.7027 15.8441C80.7845 16.0042 80.9481 16.0842 81.1026 16.0842H83.5569C83.8024 16.0842 84.0387 15.8886 84.0387 15.6129C84.0387 15.5773 84.0387 15.5329 84.0023 15.4973C83.1933 13.1318 81.1845 11.7534 78.3302 11.7534C74.7124 11.7534 72.1309 14.1989 72.1309 18.0584C72.1309 21.9179 74.6669 24.3635 78.2848 24.408C81.139 24.408 83.157 22.9495 84.0023 20.6996C84.0842 20.4595 83.966 20.1838 83.7206 20.1127C83.6842 20.1127 83.6388 20.0771 83.5569 20.0771H81.1026C80.9027 20.0771 80.7391 20.1927 80.6572 20.3528C80.2118 21.2955 79.4483 21.7756 78.2393 21.7756C76.4668 21.7756 75.3033 20.4773 75.3396 18.1118C75.3851 15.7285 76.5122 14.3857 78.2848 14.3857Z" fill="#191919"/>
<path d="M97.0379 12.0648H94.7836C94.5382 12.0648 94.3382 12.2604 94.3382 12.5005V18.7699C94.3382 20.7441 93.2474 21.8023 91.5203 21.8023C89.7932 21.8023 88.7479 20.7352 88.7479 18.7699L88.7843 12.5005C88.7843 12.2604 88.5843 12.0647 88.3388 12.0292H86.0482C85.8027 12.0292 85.6028 12.2248 85.6028 12.4649L85.5664 19.2057C85.5664 22.5583 87.6571 24.408 90.5568 24.408C92.0021 24.4435 93.3747 23.821 94.2564 22.7094V23.8121C94.2564 24.0522 94.4564 24.2479 94.7018 24.2479H96.9561C97.2015 24.2479 97.4015 24.0522 97.4015 23.8121L97.4379 12.5005C97.4833 12.296 97.2834 12.1003 97.0379 12.0648Z" fill="#191919"/>
<path d="M99.9824 23.839L100.019 12.5273C100.019 12.2872 100.219 12.0916 100.464 12.0916H102.719C102.964 12.0916 103.164 12.2872 103.164 12.5273L103.128 23.839C103.128 24.0791 102.928 24.2747 102.682 24.2747H100.428C100.182 24.3103 99.9824 24.1146 99.9824 23.839Z" fill="#191919"/>
<path d="M101.491 6.97803C100.483 7.0136 99.6826 7.88511 99.719 8.87222C99.7553 9.85933 100.646 10.6419 101.655 10.6063C102.664 10.5707 103.428 9.7793 103.428 8.79218C103.428 7.80507 102.619 6.97803 101.573 6.97803C101.537 6.97803 101.537 6.97803 101.491 6.97803Z" fill="#191919"/>
<path d="M112.489 12.2248H110.353C110.235 12.2248 110.153 12.1448 110.153 12.0292V9.6637C110.153 9.4236 109.953 9.22795 109.708 9.19238H107.463C107.217 9.19238 107.017 9.38802 107.017 9.62812V11.9936C107.017 12.1092 106.935 12.1893 106.817 12.1893H105.972C105.726 12.1893 105.526 12.3849 105.526 12.625V14.2791C105.526 14.5192 105.726 14.7148 105.972 14.7148H106.781C106.899 14.7148 106.981 14.7949 106.981 14.9105V20.5841C106.981 23.3854 108.553 24.4081 110.962 24.4081H112.489C112.735 24.4081 112.935 24.2124 112.935 23.9723V22.2738C112.935 22.0336 112.735 21.838 112.489 21.838H111.444C110.435 21.838 110.117 21.4823 110.117 20.6553V14.9372C110.117 14.8215 110.199 14.7415 110.317 14.7415H112.453C112.698 14.7415 112.898 14.5459 112.898 14.2702V12.6517C112.935 12.4205 112.735 12.2248 112.489 12.2248Z" fill="#191919"/>
<path d="M131.926 8.87231H129.108C128.908 8.87231 128.744 8.98791 128.663 9.14798L123.954 19.8727C123.918 19.9883 123.79 20.0328 123.672 19.9883C123.636 19.9528 123.59 19.9527 123.554 19.8727L118.927 9.07682C118.845 8.91675 118.682 8.80115 118.527 8.80115H115.709C115.464 8.80115 115.264 8.99681 115.264 9.23691L115.228 23.7411C115.228 23.9812 115.428 24.1768 115.673 24.2124H117.927C118.173 24.2124 118.373 24.0167 118.373 23.7766L118.409 15.1862C118.409 15.0706 118.491 14.9905 118.573 14.9461C118.691 14.9461 118.773 14.9817 118.818 15.1061L122.518 23.9367C122.6 24.0968 122.763 24.2124 122.918 24.2124H124.69C124.89 24.2124 125.054 24.0968 125.136 23.9367L128.881 15.1506C128.917 15.035 128.999 14.955 129.126 14.9906C129.244 15.0261 129.326 15.1062 129.29 15.2307L129.253 23.8211C129.253 24.0612 129.453 24.2569 129.699 24.2924H131.908C132.153 24.2924 132.353 24.0968 132.353 23.8567L132.389 9.3525C132.371 9.06793 132.171 8.87231 131.926 8.87231Z" fill="#191919"/>
<path d="M140.542 11.7445C136.842 11.7445 134.261 14.19 134.261 18.0495C134.261 21.909 136.879 24.3545 140.496 24.3989C143.314 24.3989 145.287 22.9405 146.132 21.0108C146.214 20.7707 146.132 20.5395 145.887 20.4239C145.85 20.3883 145.769 20.3883 145.723 20.3883H143.269C143.105 20.3883 142.951 20.4683 142.869 20.5839C142.387 21.411 141.46 21.9268 140.496 21.8467C138.924 21.8467 137.679 20.8241 137.515 19.0099L146.25 19.0455C146.496 19.0455 146.696 18.8854 146.696 18.6542C146.732 18.3785 146.732 18.1384 146.732 17.8627C146.659 14.1545 144.123 11.7445 140.542 11.7445ZM143.196 16.9112H137.479C137.724 15.2572 138.924 14.2701 140.46 14.3056C141.987 14.3412 143.278 15.2483 143.396 16.7511C143.396 16.8312 143.314 16.9112 143.196 16.9112Z" fill="#191919"/>
<path d="M151.241 15.2928C151.241 14.5813 151.841 14.11 153.014 14.1456C154.104 14.1456 154.823 14.6614 155.023 15.4084C155.059 15.604 155.268 15.7641 155.468 15.7641H157.604C157.85 15.7641 158.086 15.5684 158.086 15.3283C158.086 15.2927 158.086 15.2928 158.086 15.2483C157.686 13.1229 155.913 11.7445 153.132 11.7445C150.032 11.7445 148.178 13.363 148.178 15.4084C148.178 19.8992 155.223 18.5208 155.223 20.6907C155.223 21.4021 154.541 21.9535 153.286 21.9535C152.159 21.9535 151.35 21.4021 151.114 20.6551C151.078 20.4595 150.868 20.3439 150.668 20.3439H148.414C148.169 20.3439 147.969 20.5395 147.969 20.7796C147.969 20.8152 147.969 20.8152 147.969 20.8597C148.369 22.8694 150.459 24.4079 153.359 24.4079C156.413 24.4079 158.268 22.8339 158.268 20.7441C158.168 16.1198 151.241 17.4982 151.241 15.2928Z" fill="#191919"/>
<path d="M162.712 15.4174C162.712 14.7059 163.312 14.2346 164.485 14.2346C165.576 14.2346 166.294 14.7504 166.494 15.4974C166.53 15.693 166.739 15.8531 166.939 15.8531H169.075C169.321 15.8531 169.557 15.6575 169.557 15.3818C169.557 15.3462 169.557 15.3462 169.557 15.3017C169.157 13.1764 167.385 11.798 164.603 11.798C161.503 11.798 159.649 13.4165 159.649 15.4263C159.649 19.9171 166.694 18.5388 166.694 20.7086C166.694 21.42 166.012 21.9714 164.758 21.9714C163.63 21.9714 162.821 21.42 162.585 20.673C162.549 20.4774 162.34 20.3618 162.14 20.3618H159.849C159.604 20.3618 159.404 20.5574 159.367 20.7975C159.367 20.8331 159.367 20.8331 159.367 20.8776C159.767 22.8873 161.858 24.4258 164.758 24.4258C167.812 24.4258 169.666 22.8518 169.666 20.762C169.639 16.28 162.712 17.6584 162.712 15.4174Z" fill="#191919"/>
<path d="M122.919 43.9518H120.899V47.2719H122.919C123.517 47.2719 123.968 47.1245 124.263 46.8298C124.558 46.535 124.714 46.1276 124.714 45.5901C124.714 45.0787 124.566 44.6799 124.263 44.3852C123.959 44.0991 123.509 43.9518 122.919 43.9518Z" fill="#191919"/>
<path d="M129.827 33.8181H42.4205C39.0397 33.8181 36.2744 36.5834 36.2744 39.9642V55.8538C36.2744 59.2346 39.0397 61.9999 42.4205 61.9999H129.827C133.207 61.9999 135.973 59.2346 135.973 55.8538V39.9642C135.973 36.5834 133.207 33.8181 129.827 33.8181ZM53.6377 52.7245C53.2477 53.3486 52.6842 53.8427 51.9473 54.2155C51.2105 54.5882 50.335 54.7703 49.3381 54.7703C48.3585 54.7703 47.483 54.6142 46.7028 54.2935C45.9226 53.9728 45.3072 53.5046 44.8391 52.8805C44.3709 52.2564 44.1282 51.5108 44.1022 50.6266H47.5697C47.6217 51.1208 47.7951 51.5022 48.0811 51.7622C48.3672 52.0223 48.7573 52.1523 49.2254 52.1523C49.7108 52.1523 50.0922 52.0396 50.3696 51.8229C50.647 51.5975 50.7857 51.2941 50.7857 50.8954C50.7857 50.566 50.6731 50.2886 50.4563 50.0719C50.2309 49.8551 49.9622 49.6731 49.6328 49.5344C49.3034 49.3957 48.844 49.2397 48.2545 49.0576C47.3876 48.7889 46.6855 48.5202 46.1394 48.2601C45.5932 47.9914 45.1251 47.6013 44.7264 47.0812C44.3276 46.561 44.1369 45.8762 44.1369 45.044C44.1369 43.7957 44.5877 42.8248 45.4892 42.114C46.3907 41.4118 47.5697 41.0565 49.0173 41.0565C50.491 41.0565 51.6786 41.4118 52.5802 42.114C53.4817 42.8162 53.9671 43.8044 54.0278 45.0614H50.4997C50.4737 44.6279 50.3176 44.2898 50.0229 44.0384C49.7282 43.7871 49.3554 43.6657 48.896 43.6657C48.5059 43.6657 48.1852 43.7697 47.9424 43.9778C47.6997 44.1858 47.5784 44.4892 47.5784 44.8793C47.5784 45.3127 47.7777 45.6508 48.1851 45.8936C48.5926 46.1363 49.2254 46.3963 50.0923 46.6737C50.9591 46.9685 51.6613 47.2459 52.1987 47.5146C52.7362 47.7833 53.2043 48.1734 53.6031 48.6762C53.9932 49.1876 54.1925 49.8378 54.1925 50.644C54.2185 51.4068 54.0278 52.1003 53.6377 52.7245ZM65.8952 47.6793C65.5398 48.3208 64.9937 48.8409 64.2569 49.231C63.52 49.6211 62.6011 49.8205 61.5089 49.8205H59.4891V54.6229H56.2297V41.2385H61.5089C62.5751 41.2385 63.4767 41.4205 64.2135 41.7933C64.9503 42.1574 65.5051 42.6688 65.8692 43.319C66.242 43.9691 66.424 44.7146 66.424 45.5468C66.424 46.327 66.2506 47.0378 65.8952 47.6793ZM76.3236 43.8564H71.3825V46.561H75.7515V49.075H71.3825V52.0136H76.3236V54.6229H68.1231V41.2385H76.3236V43.8564ZM90.4189 54.6316H87.1595L81.7069 46.3703V54.6316H78.4475V41.2471H81.7069L87.1595 49.5431V41.2471H90.4189V54.6316ZM96.4783 50.722C97.1024 51.4242 97.9173 51.7709 98.9228 51.7709C99.547 51.7709 100.102 51.6235 100.587 51.3288C101.073 51.0341 101.454 50.6093 101.723 50.0545H105.312C104.93 51.5022 104.176 52.6464 103.04 53.4786C101.905 54.3108 100.544 54.7269 98.9575 54.7269C97.6572 54.7269 96.5043 54.4409 95.4727 53.8601C94.4498 53.2793 93.6523 52.4731 93.0802 51.4502C92.508 50.4186 92.222 49.2483 92.222 47.922C92.222 46.5957 92.508 45.4168 93.0802 44.3852C93.6523 43.345 94.4498 42.5388 95.4727 41.9667C96.4956 41.3859 97.6572 41.0998 98.9575 41.0998C100.544 41.0998 101.905 41.5159 103.04 42.3568C104.176 43.1976 104.93 44.3419 105.312 45.7895H101.723C101.454 45.2261 101.081 44.8013 100.587 44.5152C100.102 44.2205 99.5383 44.0731 98.9228 44.0731C97.9173 44.0731 97.1024 44.4199 96.4783 45.122C95.8541 45.8242 95.5421 46.7518 95.5421 47.922C95.5507 49.0836 95.8541 50.0198 96.4783 50.722ZM115.515 43.8564H110.574V46.561H114.943V49.075H110.574V52.0136H115.515V54.6229H107.314V41.2385H115.515V43.8564ZM124.461 54.6316L121.678 49.5777H120.898V54.6316H117.638V41.2471H123.108C124.166 41.2471 125.059 41.4292 125.804 41.8019C126.55 42.166 127.105 42.6775 127.469 43.319C127.841 43.9604 128.024 44.6799 128.024 45.4601C128.024 46.353 127.772 47.1418 127.269 47.844C126.767 48.5462 126.03 49.0403 125.05 49.335L128.136 54.6402H124.461V54.6316Z" fill="#191919"/>
<path d="M61.2566 43.8738H59.4795V47.2285H61.2566C61.8807 47.2285 62.3402 47.0812 62.6522 46.7864C62.9556 46.4917 63.1117 46.0843 63.1117 45.5468C63.1117 45.0094 62.9556 44.6019 62.6522 44.3072C62.3402 44.0211 61.8807 43.8738 61.2566 43.8738Z" fill="#191919"/>
</g>
<defs>
<filter id="filter0_d" x="0.333984" y="0" width="173.332" height="69.9999" filterUnits="userSpaceOnUse" color-interpolation-filters="sRGB">
<feFlood flood-opacity="0" result="BackgroundImageFix"/>
<feColorMatrix in="SourceAlpha" type="matrix" values="0 0 0 0 0 0 0 0 0 0 0 0 0 0 0 0 0 0 127 0"/>
<feOffset dy="4"/>
<feGaussianBlur stdDeviation="2"/>
<feColorMatrix type="matrix" values="0 0 0 0 0 0 0 0 0 0 0 0 0 0 0 0 0 0 0.25 0"/>
<feBlend mode="normal" in2="BackgroundImageFix" result="effect1_dropShadow"/>
<feBlend mode="normal" in="SourceGraphic" in2="effect1_dropShadow" result="shape"/>
</filter>
</defs>
</svg>
