<svg width="23" height="16" viewBox="0 0 23 16" fill="none" xmlns="http://www.w3.org/2000/svg">
<path id="Vector" d="M22.8611 7.39167C20.6956 2.98292 16.4087 0 11.5 0C6.59133 0 2.30318 2.985 0.138937 7.39208C0.0475922 7.58063 0 7.78894 0 8.00021C0 8.21148 0.0475922 8.41979 0.138937 8.60833C2.30437 13.0171 6.59133 16 11.5 16C16.4087 16 20.6968 13.015 22.8611 8.60792C22.9524 8.41937 23 8.21106 23 7.99979C23 7.78852 22.9524 7.58021 22.8611 7.39167ZM11.5 14C10.3628 14 9.25105 13.6481 8.30546 12.9888C7.35988 12.3295 6.62289 11.3925 6.18768 10.2961C5.75248 9.19974 5.63861 7.99334 5.86047 6.82946C6.08234 5.66557 6.62997 4.59647 7.43413 3.75736C8.23828 2.91824 9.26283 2.3468 10.3782 2.11529C11.4936 1.88378 12.6498 2.0026 13.7004 2.45672C14.7511 2.91085 15.6491 3.67988 16.281 4.66658C16.9128 5.65327 17.25 6.81331 17.25 8C17.2504 8.78804 17.1019 9.56843 16.8131 10.2966C16.5242 11.0247 16.1007 11.6863 15.5667 12.2435C15.0327 12.8007 14.3987 13.2427 13.7009 13.5441C13.0031 13.8455 12.2552 14.0004 11.5 14ZM11.5 4C11.1578 4.00499 10.8179 4.05811 10.4894 4.15792C10.7602 4.54195 10.8901 5.01454 10.8557 5.48998C10.8212 5.96542 10.6246 6.41223 10.3015 6.74938C9.97838 7.08652 9.55019 7.29168 9.09456 7.32765C8.63892 7.36362 8.18603 7.22801 7.818 6.94542C7.60843 7.75108 7.64626 8.60503 7.92616 9.38708C8.20607 10.1691 8.71395 10.8399 9.37833 11.305C10.0427 11.7701 10.8301 12.006 11.6298 11.9797C12.4294 11.9533 13.201 11.666 13.8359 11.158C14.4708 10.6501 14.9371 9.94726 15.1692 9.14833C15.4012 8.3494 15.3873 7.49466 15.1294 6.70441C14.8715 5.91415 14.3826 5.22818 13.7316 4.74305C13.0805 4.25791 12.3 3.99803 11.5 4Z" fill="#d3d3d3"/>
</svg>
