<svg width="24" height="24" viewBox="0 0 24 24" fill="none" xmlns="http://www.w3.org/2000/svg">
<path d="M17.3775 6.2475C15.9121 4.87537 14.0104 4.12322 11.9929 4.125C8.36203 4.12819 5.2275 6.61772 4.36205 10.0711C4.29905 10.3225 4.07508 10.5 3.81591 10.5H1.12983C0.778359 10.5 0.511359 10.1809 0.576375 9.8355C1.59061 4.44956 6.31936 0.375 12 0.375C15.1147 0.375 17.9433 1.60012 20.0304 3.59461L21.7045 1.92047C22.4132 1.21177 23.625 1.7137 23.625 2.71598V9C23.625 9.62133 23.1213 10.125 22.5 10.125H16.216C15.2137 10.125 14.7118 8.91323 15.4205 8.20448L17.3775 6.2475ZM1.5 13.875H7.78402C8.7863 13.875 9.28823 15.0868 8.57953 15.7955L6.6225 17.7525C8.08791 19.1247 9.98977 19.8769 12.0073 19.875C15.6363 19.8718 18.7721 17.3839 19.638 13.929C19.701 13.6776 19.9249 13.5001 20.1841 13.5001H22.8702C23.2217 13.5001 23.4887 13.8192 23.4237 14.1646C22.4094 19.5504 17.6806 23.625 12 23.625C8.88525 23.625 6.05667 22.3999 3.96961 20.4054L2.29547 22.0795C1.58677 22.7882 0.375 22.2863 0.375 21.284V15C0.375 14.3787 0.878672 13.875 1.5 13.875Z" fill="#E3384D"/>
</svg>
