<?xml version="1.0" encoding="utf-8"?>
<!-- Generator: Adobe Illustrator 23.0.1, SVG Export Plug-In . SVG Version: 6.00 Build 0)  -->
<svg version="1.1" id="Layer_1" xmlns="http://www.w3.org/2000/svg" xmlns:xlink="http://www.w3.org/1999/xlink" x="0px" y="0px"
	 viewBox="0 0 533.7 177.2" style="enable-background:new 0 0 533.7 177.2;" xml:space="preserve">
<style type="text/css">
	.st0{fill:#FFFFFF;}
</style>
<g id="visuals">
	<path class="st0" d="M111,108.6l-3.6-1.8c-0.7-0.4-1.6-0.1-2,0.6c-5.4,9.1-17.1,12-26.2,6.6c0,0-0.1-0.1-0.1-0.1
		c-9.1-5.5-12-17.3-6.6-26.4c5.4-9.1,17.1-12.1,26.2-6.7c0,0,0.1,0,0.1,0.1c0.8,0.5,1.6,1,2.3,1.6c0.6,0.5,1.5,0.4,2-0.1l2.8-2.9
		c0.6-0.6,0.5-1.5,0-2.1c0,0,0,0-0.1,0l-0.1-0.1c-11.1-9.2-27.6-7.7-36.8,3.4s-7.7,27.6,3.4,36.8s27.6,7.7,36.8-3.4c0,0,0,0,0,0
		c0.9-1.1,1.7-2.3,2.5-3.5C112,110,111.8,109.1,111,108.6L111,108.6z"/>
	<path class="st0" d="M70.3,71.5c2.6-0.9,4-3.8,3.1-6.5c-0.9-2.6-3.8-4-6.5-3.1c-2.6,0.9-4,3.8-3.1,6.5
		C64.7,71.1,67.6,72.4,70.3,71.5z"/>
	<path class="st0" d="M87.3,65.4c2.6-0.9,4-3.9,3.1-6.5c-0.9-2.6-3.9-4-6.5-3.1c-2.6,0.9-4,3.8-3.1,6.5C81.7,65,84.6,66.3,87.3,65.4
		z"/>
	<path class="st0" d="M125.4,91.6c-0.6-0.6-1.5-0.6-2.1,0c0,0,0,0,0,0l-2.3,2.1l-5.7-9.9c-0.9-1.5-2.9-2.1-4.4-1.2
		c-0.6,0.3-1,0.8-1.3,1.4l-4.4,9.4l-3.9-5c-1-1.3-2.8-1.6-4.2-0.8c-0.6,0.3-1,0.9-1.3,1.5l-6,12.9c-0.3,0.7,0,1.6,0.7,2l3.1,1.4
		c0.7,0.3,1.6,0,2-0.7l0,0l3.8-8.2l3.8,5c0.8,1.1,2.3,1.5,3.6,1c0.8-0.3,1.5-0.9,1.8-1.7l4-8.5l4.7,8c0.3,0.6,0.8,1.1,1.4,1.4
		c1.2,0.6,2.7,0.4,3.6-0.6l5.3-5c0.6-0.6,0.6-1.5,0.1-2.1L125.4,91.6z"/>
	<path class="st0" d="M175.1,84.6c3.7-0.1,7.2,1.8,9.1,5c0.2,0.4,0.6,0.6,1,0.6h6.7c0.6,0,1.1-0.5,1.1-1.1c0-0.2,0-0.3-0.1-0.4
		c-3-7-9.6-11.1-17.7-11.1c-11.3,0-19.9,8.2-19.9,19.9s8.5,20,19.8,20c8.1,0,14.8-3.9,17.8-11c0.2-0.6,0-1.2-0.6-1.5c0,0,0,0,0,0
		c-0.1-0.1-0.3-0.1-0.4-0.1h-6.7c-0.4,0-0.8,0.2-1,0.6c-1.8,3.3-5.4,5.2-9.1,5c-6.8,0-11.7-5.1-11.7-13S168.3,84.6,175.1,84.6z"/>
	<path class="st0" d="M198.3,116.1l0.1-28.7c0-0.6,0.5-1.1,1.1-1.1h5.6c0.6,0,1.1,0.5,1.1,1.1l-0.1,28.7c0,0.6-0.5,1.1-1.1,1.1h-5.6
		C198.8,117.1,198.3,116.7,198.3,116.1z"/>
	<path class="st0" d="M202.1,73.3c-2.5,0.1-4.5,2.3-4.4,4.8c0.1,2.5,2.3,4.5,4.8,4.4l0,0c2.5-0.1,4.6-2.2,4.5-4.7s-2.2-4.6-4.7-4.5
		l0,0C202.2,73.2,202.1,73.2,202.1,73.3z"/>
	<path class="st0" d="M228.9,85.8c-3.4,0.3-6.5,2.2-8.3,5.2v-3.7c0-0.6-0.5-1.1-1.1-1.1H214c-0.6,0-1.1,0.5-1.1,1.1l-0.1,28.7
		c0,0.6,0.5,1.1,1.1,1.1h5.6c0.6,0,1.1-0.5,1.1-1.1l0.1-14.3c0-6,2.8-7.8,7.5-7.8h0.9c0.6,0,1.1-0.5,1.1-1.1l0,0v-5.9
		C230.1,86.3,229.5,85.9,228.9,85.8L228.9,85.8z"/>
	<path class="st0" d="M246.7,92.1c2.6-0.2,5,1.3,6,3.7c0.2,0.4,0.6,0.6,1,0.6h6.1c0.7,0,1.2-0.5,1.2-1.2c0-0.1,0-0.2-0.1-0.3
		c-2-6-7-9.5-14.1-9.5c-9,0-15.4,6.2-15.4,16s6.3,16,15.3,16.1c7.1,0,12.1-3.7,14.2-9.4c0.2-0.6-0.1-1.3-0.7-1.5
		c-0.1,0-0.2-0.1-0.4-0.1h-6.1c-0.5,0-0.9,0.3-1.1,0.7c-1.1,2.4-3,3.6-6,3.6c-4.4,0-7.3-3.3-7.2-9.3S242.3,92.1,246.7,92.1z"/>
	<path class="st0" d="M293.3,86.2h-5.6c-0.6,0-1.1,0.5-1.1,1.1l0,0v15.9c0,5-2.7,7.7-7,7.7s-6.9-2.7-6.9-7.7l0.1-15.9
		c0-0.6-0.5-1.1-1.1-1.2H266c-0.6,0-1.1,0.5-1.1,1.1l0,0l-0.1,17.1c0,8.5,5.2,13.2,12.4,13.2c3.6,0.1,7-1.5,9.2-4.3v2.8
		c0,0.6,0.5,1.1,1.1,1.1h5.6c0.6,0,1.1-0.5,1.1-1.1l0,0l0.1-28.7C294.4,86.8,293.9,86.3,293.3,86.2L293.3,86.2z"/>
	<path class="st0" d="M300.6,116.1l0.1-28.7c0-0.6,0.5-1.1,1.1-1.1h5.6c0.6,0,1.1,0.5,1.1,1.1l-0.1,28.7c0,0.6-0.5,1.1-1.1,1.1h-5.6
		c-0.5,0.1-1-0.3-1.1-0.9C300.6,116.2,300.6,116.1,300.6,116.1z"/>
	<path class="st0" d="M304.4,73.3c-2.5,0.1-4.5,2.3-4.4,4.8c0.1,2.5,2.3,4.5,4.8,4.4c2.5-0.1,4.6-2.2,4.5-4.7s-2.2-4.6-4.7-4.5
		H304.4z"/>
	<path class="st0" d="M331.7,86.6h-5.3c-0.3,0-0.5-0.2-0.5-0.4c0,0,0,0,0-0.1v-6c0-0.6-0.5-1.1-1.1-1.2h-5.6c-0.6,0-1.1,0.5-1.1,1.1
		v6c0,0.3-0.2,0.5-0.4,0.5c0,0,0,0-0.1,0h-2.1c-0.6,0-1.1,0.5-1.1,1.1l0,0v4.2c0,0.6,0.5,1.1,1.1,1.1h2c0.3,0,0.5,0.2,0.5,0.4
		c0,0,0,0,0,0.1v14.4c0,7.1,3.9,9.7,9.9,9.7h3.8c0.6,0,1.1-0.5,1.1-1.1v-4.3c0-0.6-0.5-1.1-1.1-1.1h-2.6c-2.5,0-3.3-0.9-3.3-3V93.5
		c0-0.3,0.2-0.5,0.4-0.5c0,0,0,0,0.1,0h5.3c0.6,0,1.1-0.5,1.1-1.2c0,0,0,0,0,0v-4.1c0.1-0.5-0.3-1-0.9-1.1
		C331.8,86.6,331.8,86.6,331.7,86.6z"/>
	<path class="st0" d="M380,78.1h-7c-0.5,0-0.9,0.3-1.1,0.7L360.3,106c-0.1,0.3-0.4,0.4-0.7,0.3c0,0,0,0,0,0
		c-0.1-0.1-0.2-0.1-0.3-0.3l-11.5-27.4c-0.2-0.4-0.6-0.7-1-0.7h-7c-0.6,0-1.1,0.5-1.1,1.1l-0.1,36.8c0,0.6,0.5,1.1,1.1,1.2h5.6
		c0.6,0,1.1-0.5,1.1-1.1l0,0l0.1-21.8c0-0.3,0.2-0.5,0.4-0.6c0.3,0,0.5,0.1,0.6,0.4l9.2,22.4c0.2,0.4,0.6,0.7,1,0.7h4.4
		c0.5,0,0.9-0.3,1.1-0.7l9.3-22.3c0.1-0.3,0.3-0.5,0.6-0.4s0.5,0.3,0.4,0.6l-0.1,21.8c0,0.6,0.5,1.1,1.1,1.2h5.5
		c0.6,0,1.1-0.5,1.1-1.1l0.1-36.8C381.2,78.6,380.8,78.1,380,78.1C380.1,78.1,380.1,78.1,380,78.1z"/>
	<path class="st0" d="M401.5,85.4c-9.2,0-15.6,6.2-15.6,16s6.5,16,15.5,16.1c7,0,11.9-3.7,14-8.6c0.2-0.6,0-1.2-0.6-1.5
		c-0.1-0.1-0.3-0.1-0.4-0.1h-6.1c-0.4,0-0.8,0.2-1,0.5c-1.2,2.1-3.5,3.4-5.9,3.2c-3.9,0-7-2.6-7.4-7.2l21.7,0.1
		c0.5,0.1,1-0.3,1.1-0.9c0,0,0-0.1,0-0.1c0.1-0.7,0.1-1.3,0.1-2C416.7,91.5,410.4,85.4,401.5,85.4z M408.1,98.5h-14.2
		c0.6-4.2,3.6-6.7,7.4-6.6s7,2.4,7.3,6.2C408.5,98.3,408.3,98.5,408.1,98.5z"/>
	<path class="st0" d="M428.1,94.4c0-1.8,1.5-3,4.4-2.9c2.7,0,4.5,1.3,5,3.2c0.1,0.5,0.6,0.9,1.1,0.9h5.3c0.6,0,1.1-0.5,1.2-1.1v-0.2
		c-1-5.4-5.4-8.9-12.3-8.9c-7.7,0-12.3,4.1-12.3,9.3c0,11.4,17.5,7.9,17.5,13.4c0,1.8-1.7,3.2-4.8,3.2c-2.8,0-4.8-1.4-5.4-3.3
		c-0.1-0.5-0.6-0.8-1.1-0.8h-5.6c-0.6,0-1.1,0.5-1.1,1.1v0.2c1,5.1,6.2,9,13.4,9c7.6,0,12.2-4,12.2-9.3
		C445.3,96.5,428.1,100,428.1,94.4z"/>
	<path class="st0" d="M456.6,94.7c0-1.8,1.5-3,4.4-3c2.7,0,4.5,1.3,5,3.2c0.1,0.5,0.6,0.9,1.1,0.9h5.3c0.7,0,1.2-0.5,1.2-1.2v-0.2
		c-1-5.4-5.4-8.9-12.3-8.9c-7.7,0-12.3,4.1-12.3,9.2c0,11.4,17.5,7.9,17.5,13.4c0,1.8-1.7,3.2-4.8,3.2c-2.8,0-4.8-1.4-5.4-3.3
		c-0.1-0.5-0.6-0.8-1.1-0.8h-5.7c-0.6,0-1.1,0.5-1.2,1.1v0.2c1,5.1,6.2,9,13.4,9c7.6,0,12.2-4,12.2-9.3
		C473.8,96.9,456.6,100.4,456.6,94.7z"/>
</g>
</svg>
