<svg xmlns="http://www.w3.org/2000/svg" viewBox="0 0 533.73 177.2"><defs><style>.cls-1{fill:none;}</style></defs><title>CircuitMess_logo</title><g id="bg"><rect class="cls-1" width="533.73" height="177.2"/></g><g id="visuals"><path d="M110,107.64l-3.6-1.8a1.49,1.49,0,0,0-2,.6A19.11,19.11,0,0,1,78.06,113a19.36,19.36,0,0,1-6.6-26.41A19.11,19.11,0,0,1,97.77,80a18.82,18.82,0,0,1,2.3,1.6,1.52,1.52,0,0,0,2-.1l2.8-2.9a1.45,1.45,0,0,0-.1-2.1l-.1-.1a26.14,26.14,0,1,0,3.4,36.81c.9-1.1,1.7-2.3,2.5-3.5a1.6,1.6,0,0,0-.5-2.1Z"/><path d="M69.26,70.52a5.09,5.09,0,1,0-6.5-3.1,5.13,5.13,0,0,0,6.5,3.1Z"/><path d="M86.27,64.42a5.09,5.09,0,1,0-6.51-3.1A5.13,5.13,0,0,0,86.27,64.42Z"/><path d="M124.38,90.63a1.45,1.45,0,0,0-2.1,0l-2.3,2.1-5.7-9.9a3.25,3.25,0,0,0-4.41-1.2,3,3,0,0,0-1.3,1.4l-4.4,9.4-3.9-5a3.25,3.25,0,0,0-4.2-.8,3.11,3.11,0,0,0-1.3,1.5l-6,12.9a1.59,1.59,0,0,0,.7,2l3.1,1.4a1.52,1.52,0,0,0,2-.7h0l3.8-8.2,3.8,5a3.13,3.13,0,0,0,3.6,1,3,3,0,0,0,1.8-1.7l4-8.5,4.71,8a3.16,3.16,0,0,0,1.4,1.4,3.06,3.06,0,0,0,3.6-.6l5.3-5a1.55,1.55,0,0,0,.1-2.1Z"/><path d="M174.08,83.56a10.07,10.07,0,0,1,9.11,5,1.1,1.1,0,0,0,1,.6h6.7a1.11,1.11,0,0,0,1.1-1.1c0-.2,0-.3-.1-.4-3-7-9.6-11.1-17.71-11.1-11.3,0-19.9,8.2-19.9,19.91s8.5,20,19.8,20c8.11,0,14.81-3.9,17.81-11a1.14,1.14,0,0,0-.6-1.5.6.6,0,0,0-.4-.1h-6.7a1.1,1.1,0,0,0-1,.6,9.78,9.78,0,0,1-9.11,5c-6.8,0-11.7-5.1-11.7-13S167.28,83.56,174.08,83.56Z"/><path d="M197.32,115.05l.1-28.71a1.11,1.11,0,0,1,1.1-1.1h5.6a1.11,1.11,0,0,1,1.1,1.1l-.1,28.71a1.11,1.11,0,0,1-1.1,1.1h-5.6A1.11,1.11,0,0,1,197.32,115.05Z"/><path d="M201.07,72.33a4.6,4.6,0,0,0,.4,9.2,4.6,4.6,0,0,0-.2-9.2C201.17,72.23,201.07,72.23,201.07,72.33Z"/><path d="M227.9,84.84a10.78,10.78,0,0,0-8.3,5.2v-3.7a1.11,1.11,0,0,0-1.1-1.1H213a1.11,1.11,0,0,0-1.1,1.1l-.1,28.71a1.11,1.11,0,0,0,1.1,1.1h5.6a1.11,1.11,0,0,0,1.1-1.1l.1-14.31c0-6,2.8-7.8,7.5-7.8h.9a1.11,1.11,0,0,0,1.1-1.1h0v-5.9a1.4,1.4,0,0,0-1.3-1.1Z"/><path d="M245.71,91.06a6,6,0,0,1,6,3.71,1.1,1.1,0,0,0,1,.6h6.1a1.22,1.22,0,0,0,1.2-1.2.37.37,0,0,0-.1-.3c-2-6-7-9.51-14.1-9.51-9,0-15.41,6.2-15.41,16s6.3,16,15.31,16.1c7.1,0,12.1-3.7,14.2-9.4a1.19,1.19,0,0,0-.7-1.5c-.1,0-.2-.1-.4-.1h-6.1a1.23,1.23,0,0,0-1.1.7c-1.1,2.4-3,3.6-6,3.6-4.4,0-7.3-3.3-7.2-9.3S241.31,91.06,245.71,91.06Z"/><path d="M292.32,85.16h-5.6a1.11,1.11,0,0,0-1.1,1.1h0v15.9c0,5-2.7,7.71-7,7.71s-6.9-2.7-6.9-7.71l.1-15.9a1.28,1.28,0,0,0-1.1-1.2H265a1.11,1.11,0,0,0-1.1,1.1h0l-.1,17.1c0,8.51,5.21,13.21,12.41,13.21a11.28,11.28,0,0,0,9.2-4.3V115a1.11,1.11,0,0,0,1.1,1.1h5.6a1.11,1.11,0,0,0,1.1-1.1h0l.1-28.71c.1-.5-.4-1-1-1.1Z"/><path d="M299.65,115.05l.1-28.71a1.11,1.11,0,0,1,1.1-1.1h5.6a1.11,1.11,0,0,1,1.1,1.1l-.1,28.71a1.11,1.11,0,0,1-1.1,1.1h-5.6A1,1,0,0,1,299.65,115.05Z"/><path d="M303.4,72.26a4.6,4.6,0,1,0,.4,9.2,4.6,4.6,0,0,0-.2-9.2Z"/><path d="M330.74,85.56h-5.31a.47.47,0,0,1-.5-.5v-6a1.28,1.28,0,0,0-1.1-1.2h-5.6a1.11,1.11,0,0,0-1.1,1.1v6a.47.47,0,0,1-.5.5h-2.1a1.11,1.11,0,0,0-1.1,1.1h0v4.2a1.12,1.12,0,0,0,1.1,1.11h2a.47.47,0,0,1,.5.5v14.4c0,7.1,3.9,9.7,9.9,9.7h3.81a1.11,1.11,0,0,0,1.1-1.1v-4.3a1.11,1.11,0,0,0-1.1-1.1h-2.6c-2.51,0-3.31-.9-3.31-3V92.47a.47.47,0,0,1,.5-.5h5.31a1.14,1.14,0,0,0,1.1-1.21v-4.1A1,1,0,0,0,330.74,85.56Z"/><path d="M379.05,77.06h-7a1.23,1.23,0,0,0-1.1.7L359.25,105a.52.52,0,0,1-.7.3c-.1-.1-.2-.1-.3-.3L346.74,77.56a1.2,1.2,0,0,0-1-.7h-7a1.11,1.11,0,0,0-1.1,1.1l-.1,36.81a1.28,1.28,0,0,0,1.1,1.2h5.6a1.11,1.11,0,0,0,1.1-1.1h0l.1-21.8a.68.68,0,0,1,.4-.6.55.55,0,0,1,.6.4l9.2,22.4a1.2,1.2,0,0,0,1,.7h4.41a1.23,1.23,0,0,0,1.1-.7l9.3-22.3c.1-.3.3-.5.6-.4s.5.3.4.6l-.1,21.8a1.28,1.28,0,0,0,1.1,1.2H379a1.11,1.11,0,0,0,1.1-1.1l.1-36.81A1.13,1.13,0,0,0,379.05,77.06Z"/><path d="M400.46,84.36c-9.2,0-15.61,6.2-15.61,16s6.51,16,15.51,16.1c7,0,11.9-3.7,14-8.6a1.18,1.18,0,0,0-.6-1.5.6.6,0,0,0-.4-.1h-6.1a1.23,1.23,0,0,0-1,.5,6.28,6.28,0,0,1-5.9,3.2c-3.9,0-7-2.6-7.4-7.2l21.7.1a1,1,0,0,0,1.1-1,13.4,13.4,0,0,0,.1-2C415.66,90.46,409.36,84.36,400.46,84.36Zm6.6,13.11h-14.2c.6-4.2,3.6-6.71,7.4-6.61s7,2.41,7.3,6.21A.46.46,0,0,1,407.06,97.47Z"/><path d="M427.07,93.37c0-1.8,1.5-3,4.4-2.91,2.7,0,4.5,1.31,5,3.21a1.17,1.17,0,0,0,1.1.9h5.3a1.2,1.2,0,0,0,1.2-1.1v-.2c-1-5.41-5.4-8.91-12.3-8.91-7.7,0-12.3,4.1-12.3,9.31,0,11.4,17.5,7.9,17.5,13.4,0,1.8-1.7,3.2-4.8,3.2-2.8,0-4.8-1.4-5.4-3.3a1.08,1.08,0,0,0-1.1-.8h-5.6a1.11,1.11,0,0,0-1.1,1.1v.2c1,5.1,6.2,9,13.4,9,7.6,0,12.2-4,12.2-9.3C444.27,95.47,427.07,99,427.07,93.37Z"/><path d="M455.58,93.67c0-1.8,1.5-3,4.4-3,2.7,0,4.5,1.31,5,3.21a1.17,1.17,0,0,0,1.1.9h5.3a1.22,1.22,0,0,0,1.2-1.2v-.2c-1-5.41-5.4-8.91-12.3-8.91-7.7,0-12.31,4.1-12.31,9.21,0,11.4,17.51,7.9,17.51,13.4,0,1.8-1.7,3.2-4.8,3.2-2.8,0-4.8-1.4-5.4-3.3a1.08,1.08,0,0,0-1.1-.8h-5.71a1.28,1.28,0,0,0-1.2,1.1v.2c1,5.1,6.21,9,13.41,9,7.6,0,12.2-4,12.2-9.3C472.78,95.87,455.58,99.37,455.58,93.67Z"/></g></svg>