<svg width="40" height="40" viewBox="0 0 40 40" fill="none" xmlns="http://www.w3.org/2000/svg">
<path d="M0 39.9604C0.371667 38.6587 0.705 37.4887 1.04 36.3204C1.695 34.0437 2.35833 31.7704 3.00833 29.487C3.37007 28.2024 4.05923 27.0337 5.00833 26.0954C13.0928 18.0187 21.1744 9.94037 29.2533 1.86037C30.4533 0.658707 31.845 -0.0429591 33.5717 0.00204084C37.405 0.103707 40.6283 4.06204 39.8733 7.72371C39.6317 8.89037 39.0233 9.84537 38.1883 10.6787C34.255 14.6054 30.3244 18.5354 26.3967 22.4687C22.3244 26.5409 18.2561 30.6148 14.1917 34.6904C13.0602 35.8533 11.6374 36.6913 10.0717 37.117C6.935 37.9804 3.81333 38.907 0.685 39.8137C0.5 39.8587 0.31 39.892 0 39.9604ZM32.5 10.717L10.5433 32.697C10.7283 33.392 10.8767 33.942 11.0233 34.4937L12.5717 34.9004C13.2383 34.4737 34.44 13.2337 34.6433 12.8554L32.5 10.717ZM7 29.402L29.1783 7.23537L27.2783 5.33871L5.13666 27.4704L5.55167 29.0187L7 29.402ZM9.70833 32.1254L31.9183 9.93537L30.0283 7.9187L7.85 30.0987L8.285 31.7454L9.70833 32.1254ZM4.46667 28.4887C4.035 29.007 2.42667 34.247 2.39333 35.0404L4.99167 37.647C5.575 37.4804 6.25667 37.292 6.935 37.0954C8.14666 36.7437 9.35833 36.3954 10.565 36.0287C10.8633 35.937 11.205 35.8837 11.4283 35.5504L10.3 35.1787L9.71166 33.0554L7.57166 32.4704C7.365 31.7404 7.16833 31.0404 6.96333 30.3037L4.83 29.7137L4.46667 28.4887ZM27.9367 4.46537L35.46 11.9804L36.545 11.0404L28.9917 3.46704L27.9367 4.46537Z" fill="current"/>
</svg>
