<svg width="40" height="38" viewBox="0 0 40 38" fill="none" xmlns="http://www.w3.org/2000/svg">
<path d="M38.2363 18.8887L28.0705 8.53037L35.3143 1.1387C35.4369 1.01361 35.5058 0.843947 35.5058 0.667037C35.5058 0.490128 35.4369 0.320465 35.3143 0.195371C35.1917 0.0702772 35.0254 3.4873e-09 34.8521 0C34.6787 -3.4873e-09 34.5124 0.0702772 34.3898 0.195371L27.1444 7.5887L21.07 1.39537C21.0093 1.33339 20.9373 1.28421 20.858 1.25066C20.7786 1.21711 20.6936 1.19985 20.6078 1.19985C20.5219 1.19985 20.4369 1.21711 20.3576 1.25066C20.2783 1.28421 20.2062 1.33339 20.1455 1.39537L4.23687 17.6287C4.2238 17.642 4.214 17.657 4.20093 17.672L4.1748 17.7004C3.87753 18.1087 3.54433 18.522 3.1948 18.9604C1.69213 20.832 0 22.952 0 25.722C0 27.8554 1.25113 30.0087 4.0474 30.0087C8.11603 30.0087 8.5554 27.232 8.5554 26.037C8.5554 24.7037 8.16503 23.3137 7.65053 22.0504L21.3967 36.0787C21.7842 36.4745 22.2445 36.7886 22.751 37.0028C23.2576 37.2171 23.8006 37.3273 24.3489 37.3273C24.8973 37.3273 25.4403 37.2171 25.9468 37.0028C26.4534 36.7886 26.9136 36.4745 27.3012 36.0787L38.2445 24.912C39.0277 24.1128 39.4676 23.0289 39.4676 21.8987C39.4676 20.7685 39.0277 19.6846 38.2445 18.8854L38.2363 18.8887ZM20.6061 2.81037L26.2215 8.53037L24.1292 10.6654C23.3093 10.1596 22.3333 9.98606 21.3941 10.179C20.4549 10.372 19.6207 10.9174 19.0565 11.7075C18.4923 12.4977 18.2391 13.475 18.3468 14.4464C18.4546 15.4179 18.9155 16.3127 19.6385 16.9541C20.3616 17.5956 21.2941 17.937 22.2518 17.9108C23.2096 17.8846 24.1228 17.4929 24.8112 16.8129C25.4996 16.1329 25.9129 15.2142 25.9696 14.2383C26.0263 13.2624 25.7222 12.3002 25.1174 11.542L27.146 9.4737L31.997 14.4154L17.003 29.7154L5.62193 18.1087L20.6061 2.81037ZM24.6633 13.9987C24.664 14.5054 24.5172 15.001 24.2417 15.4226C23.9661 15.8441 23.5741 16.1728 23.1154 16.3668C22.6566 16.5609 22.1517 16.6117 21.6647 16.5128C21.1776 16.4138 20.7303 16.1696 20.3794 15.811C20.0285 15.4525 19.7897 14.9957 19.6934 14.4986C19.5971 14.0015 19.6475 13.4864 19.8383 13.0185C20.0291 12.5507 20.3516 12.1511 20.7651 11.8705C21.1786 11.5898 21.6645 11.4407 22.1611 11.442C22.8245 11.4447 23.4599 11.715 23.9287 12.194C24.3975 12.673 24.6616 13.3217 24.6633 13.9987Z" fill="current"/>
</svg>
