<svg width="42" height="42" viewBox="0 0 42 42" fill="none" xmlns="http://www.w3.org/2000/svg">
<path d="M40.9908 5.65717L36.0242 0.690504C35.8053 0.471591 35.5455 0.297937 35.2595 0.179459C34.9736 0.0609808 34.667 0 34.3575 0C34.048 0 33.7415 0.0609808 33.4555 0.179459C33.1695 0.297937 32.9097 0.471591 32.6908 0.690504L25.0892 8.29384L23.8642 7.06884C23.5977 6.8029 23.2365 6.65354 22.86 6.65354C22.4835 6.65354 22.1224 6.8029 21.8558 7.06884L20.2575 8.66884C19.9937 8.9348 19.8457 9.29423 19.8457 9.66884C19.8457 10.0434 19.9937 10.4029 20.2575 10.6688L21.3475 11.7605L4.37751 28.7355C4.27213 28.8411 4.20523 28.979 4.18751 29.1272L3.52084 34.6638C3.02084 35.1755 1.45251 36.7605 0.677508 37.5338C0.436865 37.7628 0.251706 38.0436 0.136166 38.355C0.0206261 38.6664 -0.0222398 39 0.0108411 39.3305C0.0872242 39.9197 0.363085 40.465 0.792508 40.8755C1.29213 41.3886 1.97165 41.6875 2.68751 41.7089C2.97116 41.7096 3.25203 41.6531 3.51325 41.5425C3.77446 41.4319 4.01062 41.2697 4.20751 41.0655C5.04084 40.2322 6.56084 38.7072 7.06251 38.2038L12.6142 37.5605C12.7631 37.5427 12.9017 37.4752 13.0075 37.3689L29.9758 20.4022L31.1258 21.5505C31.3918 21.8143 31.7512 21.9623 32.1258 21.9623C32.5005 21.9623 32.8599 21.8143 33.1258 21.5505L34.7242 19.9522C34.8563 19.8204 34.961 19.6639 35.0325 19.4916C35.104 19.3193 35.1409 19.1346 35.1409 18.948C35.1409 18.7615 35.104 18.5767 35.0325 18.4044C34.961 18.2321 34.8563 18.0756 34.7242 17.9438L33.3908 16.6105L40.9925 9.00717C41.2136 8.7878 41.3891 8.52681 41.5088 8.23926C41.6285 7.95171 41.69 7.64329 41.6899 7.33183C41.6897 7.02036 41.6278 6.71201 41.5079 6.42457C41.3879 6.13714 41.2122 5.87632 40.9908 5.65717ZM22.7142 25.7688H9.22918L22.0975 12.9022L28.8392 19.6438L22.7142 25.7688Z" fill="current"/>
</svg>
