<svg width="40" height="37" viewBox="0 0 40 37" fill="none" xmlns="http://www.w3.org/2000/svg">
<path d="M38.75 35.5731H22.0233L38.095 19.4547C38.9344 18.6147 39.406 17.4757 39.406 16.2881C39.406 15.1005 38.9344 13.9615 38.095 13.1214L26.2717 1.31306C25.856 0.896812 25.3624 0.566588 24.8191 0.341279C24.2757 0.115971 23.6932 0 23.105 0C22.5168 0 21.9343 0.115971 21.3909 0.341279C20.8476 0.566588 20.354 0.896812 19.9383 1.31306L1.405 19.8531C0.565554 20.6931 0.0940094 21.8321 0.0940094 23.0197C0.0940094 24.2073 0.565554 25.3463 1.405 26.1864L10.8067 35.5797H0.666667C0.489856 35.5797 0.320287 35.65 0.195262 35.775C0.070238 35.9 0 36.0696 0 36.2464C0 36.4232 0.070238 36.5928 0.195262 36.7178C0.320287 36.8428 0.489856 36.9131 0.666667 36.9131H38.75C38.9268 36.9131 39.0964 36.8428 39.2214 36.7178C39.3464 36.5928 39.4167 36.4232 39.4167 36.2464C39.4167 36.0696 39.3464 35.9 39.2214 35.775C39.0964 35.65 38.9268 35.5797 38.75 35.5797V35.5731ZM2.34833 25.2397C2.0566 24.9481 1.82518 24.6019 1.66729 24.2209C1.5094 23.8398 1.42813 23.4314 1.42813 23.0189C1.42813 22.6064 1.5094 22.198 1.66729 21.8169C1.82518 21.4359 2.0566 21.0897 2.34833 20.7981L10.735 12.4131L27.01 28.6897L20.14 35.5764H12.6933L2.34833 25.2397Z" fill="current"/>
</svg>
