<svg width="73" height="73" viewBox="0 0 73 73" fill="none" xmlns="http://www.w3.org/2000/svg">
<path d="M65.4956 47.7444C65.8466 46.4063 66.3089 45.0999 66.8777 43.8389L66.8996 43.7878V43.7708L63.4589 45.6055C62.7718 44.4179 61.9388 43.3208 60.9793 42.34C60.8601 42.2208 60.736 42.0967 60.6143 41.9945L60.5705 41.9555C60.3272 41.7292 60.0644 41.5151 59.8016 41.3156L59.7529 41.2791C58.5126 40.3367 57.0637 39.7065 55.5287 39.4419L55.4216 39.4249C55.2586 39.3981 55.0907 39.3762 54.9349 39.3567C54.7695 39.3397 54.6016 39.3251 54.4312 39.3154H54.3071C54.1368 39.3154 53.964 39.3008 53.7913 39.3008C53.5869 39.3008 53.3849 39.3008 53.1829 39.3008H53.127C52.4261 39.3184 51.7271 39.381 51.0343 39.4881C47.9318 39.9748 45.1943 41.5711 43.5713 45.844C43.5713 45.844 46.0046 42.031 52.8179 42.4373C55.8888 42.6198 58.3513 44.9899 59.551 46.3939C59.9963 46.9171 60.281 47.304 60.3321 47.3965L60.3442 47.4159L59.7554 47.7371L57.4632 48.9879C61.393 49.2507 65.0625 51.6086 65.0625 51.6086C65.0063 50.3025 65.1574 48.9958 65.5102 47.7371L65.4956 47.7444Z" fill="current"/>
<path d="M70.7881 47.1629C70.613 46.9257 70.3845 46.7332 70.1211 46.6009C69.8577 46.4686 69.5669 46.4002 69.2721 46.4012H67.2695C67.1259 46.8149 66.9824 47.2675 66.851 47.7444H69.2721C69.3573 47.7452 69.4412 47.7657 69.5172 47.8043C69.5932 47.8428 69.6592 47.8985 69.7101 47.9668C69.761 48.0351 69.7954 48.1143 69.8106 48.1982C69.8258 48.282 69.8214 48.3682 69.7977 48.4501L65.7438 62.1376C65.7099 62.2522 65.64 62.3529 65.5445 62.4247C65.449 62.4966 65.3329 62.5358 65.2133 62.5367H42.43C42.3446 62.5363 42.2605 62.516 42.1842 62.4776C42.1079 62.4392 42.0416 62.3836 41.9904 62.3152C41.9392 62.2468 41.9046 62.1675 41.8893 62.0835C41.8739 61.9995 41.8783 61.913 41.902 61.831L45.9243 48.1459C45.9578 48.0318 46.0274 47.9315 46.1225 47.86C46.2177 47.7885 46.3333 47.7497 46.4523 47.7493H57.0033L58.3343 47.0193C58.1615 46.8246 57.962 46.6154 57.7454 46.4012H46.4523C46.0435 46.4029 45.6461 46.5361 45.3188 46.781C44.9914 47.026 44.7516 47.3697 44.6346 47.7615L41.8801 57.1371V40.2133C41.8801 40.0046 41.9628 39.8044 42.1102 39.6566C42.2575 39.5088 42.4574 39.4255 42.6661 39.4249H47.1118C47.6385 39.1321 48.1907 38.8878 48.7616 38.6949L48.9368 38.634L49.1801 38.5635L49.3115 38.5245C49.3991 38.4978 49.4867 38.4759 49.5767 38.4515L49.6789 38.4248L50.0464 38.3396C49.7338 38.1686 49.3831 38.079 49.0268 38.0792H42.6758C42.1109 38.0799 41.5693 38.3047 41.1701 38.7044C40.7709 39.1041 40.5466 39.6459 40.5466 40.2108V61.4198C40.4789 61.7086 40.4765 62.009 40.5394 62.2989C40.6022 62.5889 40.7289 62.8612 40.9102 63.0961C41.0915 63.331 41.3229 63.5225 41.5874 63.6568C41.852 63.7912 42.1432 63.8648 42.4398 63.8726H65.2133C65.6212 63.871 66.0178 63.7385 66.3446 63.4944C66.6715 63.2504 66.9112 62.9078 67.0286 62.5172L71.085 48.8297C71.1694 48.548 71.1865 48.2504 71.135 47.9609C71.0834 47.6714 70.9646 47.3981 70.7881 47.1629Z" fill="current"/>
<path d="M61.8066 40.9992H61.4587C61.6712 41.1923 61.8805 41.3942 62.0865 41.6051L62.1424 41.6611C62.3517 41.8801 62.5585 42.1064 62.7629 42.3424H64.8775C65.0544 42.3431 65.2259 42.4032 65.3645 42.5131C65.503 42.623 65.6006 42.7763 65.6416 42.9483L66.301 42.5979C66.4837 42.4998 66.6874 42.4473 66.8948 42.4446C66.7512 42.0235 66.4795 41.6577 66.1178 41.3986C65.7561 41.1394 65.3225 40.9998 64.8775 40.9992H61.8066Z" fill="current"/>
<path d="M7.05665 51.9687V15.1913C7.0573 14.5507 7.31208 13.9364 7.76508 13.4834C8.21809 13.0304 8.83231 12.7756 9.47295 12.775H59.3904C60.031 12.7756 60.6452 13.0304 61.0982 13.4834C61.5512 13.9364 61.806 14.5507 61.8067 15.1913V39.5392H63.7533V15.1913C63.7533 14.0342 63.2936 12.9244 62.4754 12.1062C61.6572 11.288 60.5475 10.8283 59.3904 10.8283H9.47295C8.31582 10.8283 7.20608 11.288 6.38787 12.1062C5.56965 12.9244 5.10999 14.0342 5.10999 15.1913V51.9687C5.10999 53.1258 5.56965 54.2356 6.38787 55.0538C7.20608 55.872 8.31582 56.3317 9.47295 56.3317H39.0769V54.385H9.47295C8.83231 54.3844 8.21809 54.1296 7.76508 53.6766C7.31208 53.2236 7.0573 52.6093 7.05665 51.9687Z" fill="current"/>
<path d="M49.0171 36.6217C49.5753 36.6223 50.1256 36.7531 50.6245 37.0036C51.1233 37.254 51.5569 37.6173 51.8908 38.0646C52.5332 38.0087 53.1659 37.9868 53.7791 37.9868C55.3449 37.9776 56.8949 38.3002 58.327 38.9333V37.7361C58.3297 37.3029 58.1749 36.8835 57.8914 36.556L46.2333 23.4281C46.1057 23.2762 45.9472 23.1531 45.7684 23.0672C45.5896 22.9812 45.3945 22.9342 45.1961 22.9294C44.9977 22.9245 44.8006 22.9619 44.6178 23.0391C44.435 23.1163 44.2707 23.2315 44.1358 23.377L29.5796 38.3688C29.3356 38.6325 28.9993 38.7918 28.6407 38.8136C28.2821 38.8353 27.9289 38.7178 27.6548 38.4856L22.9853 34.6409C22.7329 34.4337 22.4164 34.3205 22.0898 34.3205C21.7632 34.3205 21.4468 34.4337 21.1943 34.6409L11.0303 42.9459C10.836 43.1108 10.6802 43.3164 10.5738 43.548C10.4674 43.7796 10.4131 44.0318 10.4147 44.2867V49.2604C10.4147 50.1875 11.0911 50.9394 11.9233 50.9394L39.0769 50.9564V40.2133C39.0776 39.2613 39.4558 38.3485 40.1287 37.6752C40.8016 37.0018 41.7141 36.623 42.6661 36.6217H49.0171Z" fill="current"/>
<path d="M15.7923 19.1309C14.7397 19.239 13.7393 19.6433 12.9072 20.297C12.075 20.9506 11.4452 21.8268 11.0908 22.8238C10.7364 23.8209 10.672 24.898 10.9049 25.9302C11.1378 26.9624 11.6586 27.9074 12.4068 28.6557C13.1551 29.4039 14.1001 29.9247 15.1323 30.1576C16.1645 30.3905 17.2416 30.3261 18.2387 29.9717C19.2357 29.6173 20.1119 28.9875 20.7655 28.1553C21.4192 27.3232 21.8235 26.3228 21.9316 25.2702C22.0139 24.4436 21.9116 23.6091 21.6322 22.8268C21.3527 22.0446 20.9031 21.3341 20.3157 20.7468C19.7284 20.1594 19.0179 19.7098 18.2357 19.4304C17.4534 19.1509 16.6189 19.0486 15.7923 19.1309Z" fill="current"/>
</svg>
